<?xml version="1.0" encoding="utf-8"?>
<svg width="70px" height="68px" viewBox="0 0 70 68" version="1.1" xmlns:xlink="http://www.w3.org/1999/xlink" xmlns="http://www.w3.org/2000/svg">
  <g id="Logo">
    <g id="Group-4">
      <path d="M0 0L70 0L70 68L0 68L0 0Z" id="Rectangle" fill="#FFFFFF" fill-rule="evenodd" stroke="none" />
      <path d="M0 24.8105L70 24.8105L70 0L0 0L0 24.8105Z" id="Fill-1" fill="#093566" fill-rule="evenodd" stroke="none" />
      <path d="M0 24.7955L70 24.7955L70 0L0 0L0 24.7955Z" transform="translate(0 43.204544)" id="Fill-3" fill="#74B943" fill-rule="evenodd" stroke="none" />
    </g>
    <path d="M4.93937 7.95131L5.82065 7.95131C6.90683 7.95131 7.46004 8.34537 7.46004 9.02023C7.46004 9.69559 6.90683 10.0892 5.82065 10.0892L4.93937 10.0892L4.93937 7.95131ZM0 13.4085L6.98878 13.4085C10.6164 13.4085 12.4609 12.0957 12.4609 9.62033C12.4609 7.85754 11.4976 6.80737 9.50969 6.43231C10.9442 6.13251 11.7845 5.11959 11.7845 3.65685C11.7845 1.44399 10.0834 0 7.00927 0L0 0L0 13.4085ZM4.93937 3.18802L5.63625 3.18802C6.4968 3.18802 6.9478 3.52558 6.9478 4.12568C6.9478 4.72578 6.4968 5.06333 5.63625 5.06333L4.93937 5.06333L4.93937 3.18802L4.93937 3.18802Z" transform="translate(0 27.774647)" id="Fill-5" fill="#093566" fill-rule="evenodd" stroke="none" />
    <path d="M0 0L5.62438 0L5.62438 7.12438C5.62438 8.4947 5.86505 9.29823 7.17803 9.29823C8.46913 9.29823 8.75381 8.4947 8.75381 7.12438L8.75381 0L14.3779 0L14.3779 7.08785C14.3779 8.65886 14.2029 9.90131 13.459 10.8875C12.2771 12.4588 10.0012 13.4085 7.17803 13.4085C4.3549 13.4085 2.07899 12.4403 0.897285 10.8875C0.153406 9.90131 0 8.65886 0 7.08785L0 0" transform="translate(13.419406 27.774647)" id="Fill-6" fill="#093566" fill-rule="evenodd" stroke="none" />
    <path d="M0 0L5.41288 0L10.004 7.01365L10.0095 0L15.3365 0L15.3365 13.4085L9.88088 13.4085L5.33248 6.45106L5.32698 13.4085L0 13.4085L0 0" transform="translate(28.755869 27.774647)" id="Fill-7" fill="#093566" fill-rule="evenodd" stroke="none" />
    <path d="M6.58819 3.99441L1.24055 3.99441L1.24055 0L15.3365 0L8.94099 9.28302L14.5875 9.28302L14.5875 13.4085L0 13.4085L6.58819 3.99441" transform="translate(43.1338 27.774647)" id="Fill-8" fill="#093566" fill-rule="evenodd" stroke="none" />
    <path d="M0 0L5.34468 0L5.34468 9.05774L10.5438 9.05774L10.5438 13.4085L0 13.4085L0 0" transform="translate(58.47027 27.774647)" id="Fill-9" fill="#093566" fill-rule="evenodd" stroke="none" />
  </g>
</svg>